<mxfile host="app.diagrams.net" modified="2024-02-18T00:21:53.256Z" agent="Mozilla/5.0 (Linux; Android 10; K) AppleWebKit/537.36 (KHTML, like Gecko) Chrome/121.0.0.0 Mobile Safari/537.36" version="23.1.5" etag="12Ub3EL1bHcQ0e0mF38P" type="github">
  <diagram name="Page-1" id="ZXNcCXjyiwhdyyMxny_a">
    <mxGraphModel>
      <root>
        <mxCell id="0" />
        <mxCell id="1" parent="0" />
      </root>
    </mxGraphModel>
  </diagram>
</mxfile>
